{"glyphs":{":":{"x_min":0,"x_max":279,"ha":279,"o":"m 200 66 l 200 52 q 199 46 199 38 q 199 29 185 15 q 170 1 149 1 l 140 1 l 138 1 l 134 1 q 130 2 128 2 q 113 2 100 18 q 86 34 86 54 l 86 66 q 88 72 88 76 q 88 93 104 107 q 120 120 137 120 l 149 120 q 172 120 186 103 q 200 86 200 66 z m 201 401 l 201 396 q 201 372 186 354 q 172 337 147 337 l 140 337 q 120 337 104 351 q 88 364 88 384 l 86 396 l 86 401 q 86 423 100 439 q 113 455 128 455 q 132 456 134 456 l 142 457 l 147 457 q 153 456 163 456 q 172 456 186 441 q 201 427 201 401 z"},"$":{"x_min":0,"x_max":536,"ha":536,"o":"m 391 149 l 391 172 q 391 208 356 247 q 320 287 289 287 l 287 287 q 280 287 280 267 l 280 249 l 281 245 l 281 211 l 281 205 l 281 110 l 281 104 l 281 82 l 280 72 l 280 60 q 280 42 287 42 l 295 42 q 331 42 361 77 q 391 111 391 149 z m 144 504 q 144 477 177 438 q 210 400 237 400 l 239 400 q 244 400 244 408 l 244 423 l 243 426 l 243 485 l 243 491 q 243 494 243 497 l 242 502 q 242 508 242 514 q 242 624 234 624 l 231 623 l 229 623 q 195 623 169 593 q 143 562 143 531 l 143 513 q 144 507 144 504 z m 266 -73 q 250 -73 239 -42 q 229 -11 218 -3 q 207 5 156 21 q 106 38 95 48 q 65 78 65 135 q 65 174 86 174 q 103 174 120 134 q 138 94 152 82 q 181 56 214 56 q 238 56 243 86 q 246 102 246 190 q 246 278 237 294 q 228 311 178 341 q 128 372 102 406 q 75 441 75 498 q 75 554 109 594 q 144 634 189 650 q 234 667 239 671 q 243 675 251 709 q 256 728 274 728 q 284 728 292 705 q 301 682 311 675 q 312 675 360 654 q 409 632 419 622 q 440 601 440 548 q 440 520 419 520 q 406 521 394 550 q 367 614 317 614 q 299 614 294 596 q 288 577 288 495 q 288 413 297 398 q 305 384 355 356 q 405 328 430 300 q 470 255 470 193 q 470 89 381 37 q 366 28 338 17 q 311 7 300 -3 q 290 -13 283 -43 q 276 -73 266 -73 z"},"?":{"x_min":0,"x_max":449,"ha":449,"o":"m 253 49 l 253 47 l 252 45 q 252 43 252 41 l 251 34 q 251 21 238 7 q 224 -7 203 -7 l 192 -7 q 172 -7 159 6 q 145 20 145 33 q 143 39 143 42 l 143 55 q 143 79 159 93 q 176 106 192 106 l 204 106 q 209 105 217 105 q 224 105 239 91 q 253 76 253 49 z m 207 678 l 226 678 q 297 678 347 630 q 396 583 396 516 l 396 507 q 396 454 360 406 q 343 384 294 343 q 245 302 235 283 q 225 265 222 225 q 220 185 204 185 l 198 185 q 172 185 172 244 q 172 304 235 384 q 298 463 298 519 q 298 556 272 581 q 246 605 203 605 q 160 605 140 574 q 112 532 92 532 q 65 532 65 569 l 65 577 q 65 615 110 647 q 155 678 207 678 z"},"<":{"x_min":0,"x_max":556,"ha":556,"o":"m 493 517 l 493 509 q 493 484 464 465 q 435 445 287 368 q 140 290 139 286 q 140 286 283 210 q 427 134 459 112 q 491 91 492 59 q 492 42 482 42 q 456 42 84 250 q 56 265 56 292 q 56 310 83 325 q 446 532 482 532 q 493 532 493 517 z"},"'":{"x_min":0,"x_max":226,"ha":226,"o":"m 155 668 l 155 652 l 154 649 l 154 644 l 152 616 q 149 602 149 594 l 139 521 q 133 497 133 486 q 133 443 108 443 l 100 443 q 83 443 83 509 l 80 554 q 79 560 79 563 l 74 601 q 70 625 70 631 l 69 636 q 69 639 69 642 l 68 656 l 68 665 q 68 698 109 698 l 122 698 q 155 698 155 668 z"},"=":{"x_min":0,"x_max":566,"ha":566,"o":"m 511 209 l 511 200 l 511 194 q 511 172 486 172 l 103 172 l 83 171 q 52 171 52 188 l 52 203 q 52 230 82 230 l 87 230 l 92 230 l 480 230 q 511 230 511 209 z m 511 393 l 511 373 q 511 350 486 350 l 476 350 l 461 351 l 103 351 l 83 350 q 52 350 52 371 l 52 381 l 52 386 q 52 408 72 408 l 480 409 q 511 409 511 393 z"},"a":{"x_min":0,"x_max":483,"ha":483,"o":"m 307 205 q 307 234 292 234 l 290 234 q 273 234 229 220 q 186 207 169 194 q 126 161 126 119 l 126 113 q 126 86 144 67 q 161 47 184 47 l 190 46 l 199 46 q 237 46 271 76 q 304 106 304 140 q 305 147 305 149 l 305 153 l 306 171 l 306 178 l 307 187 z m 442 26 q 412 1 374 1 q 354 1 332 21 q 311 41 303 41 q 295 41 250 17 q 205 -7 175 -7 l 164 -7 q 114 -7 80 26 q 46 59 46 104 l 46 115 q 46 221 226 262 q 268 271 280 278 q 304 291 304 331 q 304 371 283 392 q 263 414 229 414 q 195 414 169 398 q 156 391 139 359 q 121 328 99 328 q 68 328 68 363 q 68 398 120 431 q 172 463 229 463 q 333 463 369 398 q 386 367 386 238 q 386 109 394 87 q 401 65 428 62 q 455 59 455 48 q 455 38 442 26 z"},"L":{"x_min":0,"x_max":586,"ha":586,"o":"m 124 418 q 124 571 118 593 q 111 616 91 626 q 46 651 46 657 q 46 676 93 676 l 135 676 l 149 675 l 164 675 q 293 675 293 656 q 293 644 265 627 q 238 610 231 589 q 220 552 220 450 l 219 421 l 219 290 q 219 115 235 84 q 245 65 265 59 q 286 53 349 53 q 412 53 461 83 q 483 98 511 138 q 539 179 550 179 q 562 179 562 148 q 562 118 545 47 q 541 26 532 19 q 514 4 363 4 l 334 3 q 320 2 306 2 l 276 1 l 217 1 l 131 1 q 64 1 64 22 q 64 27 87 50 q 110 72 116 97 q 122 123 122 212 l 124 315 l 124 359 z"},"3":{"x_min":0,"x_max":527,"ha":527,"o":"m 466 189 l 466 173 q 466 137 446 99 q 409 25 333 -4 q 286 -23 237 -23 l 221 -23 q 154 -23 107 7 q 61 37 61 82 q 61 106 83 106 q 99 106 122 81 q 145 55 171 43 q 198 31 240 31 q 303 31 338 74 q 372 117 372 177 q 372 236 336 269 q 300 301 242 312 q 185 322 185 335 q 185 351 231 371 q 340 417 340 505 q 340 541 312 567 q 285 593 242 593 q 199 593 174 580 q 149 566 128 540 q 107 514 101 514 q 84 514 84 542 q 84 587 132 620 q 179 652 262 652 q 346 652 387 618 q 428 583 428 535 q 428 486 403 442 q 391 423 364 395 q 336 366 336 362 q 336 355 372 337 q 408 318 430 291 q 466 247 466 189 z"},";":{"x_min":0,"x_max":279,"ha":279,"o":"m 205 49 l 205 42 l 205 38 q 205 -7 174 -57 q 131 -126 99 -126 l 96 -126 q 87 -126 87 -116 l 87 -114 q 87 -107 101 -90 q 116 -72 119 -67 q 141 -35 141 -8 q 141 4 114 25 q 88 45 88 71 q 88 97 103 111 q 119 125 136 125 l 150 125 q 176 125 191 102 q 205 80 205 49 z m 200 393 l 199 381 q 199 368 185 354 q 170 340 149 340 l 139 340 q 115 340 101 357 q 87 374 87 396 l 87 402 q 87 429 102 444 q 117 459 141 459 l 149 459 q 167 459 183 446 q 199 433 199 414 l 201 405 l 201 395 z"},"J":{"x_min":0,"x_max":450,"ha":450,"o":"m 167 657 q 167 676 240 676 l 364 676 q 405 676 405 662 l 405 655 q 405 648 378 630 q 351 611 343 584 q 335 558 335 389 q 335 220 330 166 q 325 112 302 59 q 280 6 233 -25 q 186 -56 133 -56 l 123 -56 q 82 -56 47 -34 q 12 -12 12 25 q 12 68 52 68 q 66 68 85 44 q 104 21 117 21 q 146 21 175 56 q 204 91 222 157 q 240 223 240 396 l 240 436 l 239 487 q 239 563 229 587 q 218 610 192 629 q 167 647 167 657 z"},"V":{"x_min":0,"x_max":673,"ha":673,"o":"m 650 647 q 650 640 622 617 q 594 594 582 569 q 559 519 490 324 q 421 129 394 63 q 367 -2 340 -2 q 312 -2 285 59 q 272 89 245 165 q 218 242 161 398 q 103 554 94 575 q 84 595 53 617 q 22 639 22 654 q 22 674 154 674 q 235 674 235 655 q 235 649 218 634 q 200 620 200 599 q 200 541 333 192 q 354 138 357 138 q 365 138 381 181 q 513 532 513 591 q 513 619 502 632 l 480 660 q 480 672 533 672 l 594 670 q 650 670 650 647 z"},"\"":{"x_min":0,"x_max":376,"ha":376,"o":"m 107 706 l 120 706 q 152 706 152 676 l 152 660 l 152 657 l 150 631 q 149 628 149 625 l 148 612 q 146 600 146 596 l 140 555 l 136 530 q 133 508 133 505 l 131 489 q 131 452 105 452 l 100 452 q 82 452 82 514 l 79 549 l 78 552 l 76 574 q 75 583 75 586 l 73 599 q 70 617 70 626 l 68 664 l 68 675 q 68 706 107 706 z m 226 677 q 226 707 268 707 q 311 707 311 674 l 311 663 l 310 660 l 308 630 q 307 622 306 614 q 305 606 304 597 q 303 588 303 584 l 291 502 q 289 492 289 490 q 289 452 264 452 l 258 452 q 242 452 242 476 q 241 481 241 484 l 241 491 l 236 561 q 233 578 233 583 l 232 595 q 229 616 229 625 l 227 646 q 227 649 227 652 l 226 660 z"},"7":{"x_min":0,"x_max":526,"ha":526,"o":"m 277 648 q 389 648 444 638 q 471 632 471 615 q 471 577 354 319 q 298 196 271 94 l 268 82 q 267 77 263 62 q 258 46 255 31 q 251 15 250 13 q 238 -21 205 -21 q 184 -21 174 -14 q 164 -7 164 19 q 164 79 272 296 q 381 513 381 535 q 381 557 362 565 q 344 573 278 573 q 158 573 107 533 q 100 527 89 515 q 78 503 71 503 q 57 503 57 526 q 57 577 71 613 q 85 648 111 648 l 165 646 l 227 648 z"},"S":{"x_min":0,"x_max":544,"ha":544,"o":"m 493 178 q 493 135 474 100 q 456 65 428 42 q 371 -6 285 -6 l 267 -6 q 241 -6 194 5 q 147 17 137 17 l 97 16 q 78 16 68 39 q 54 72 54 129 l 54 146 q 54 191 73 191 q 81 191 108 145 q 136 99 165 79 q 215 43 272 43 q 329 43 367 74 q 406 105 406 160 q 406 215 353 254 q 329 271 235 313 q 141 355 103 396 q 65 436 65 497 q 65 581 124 630 q 182 680 271 680 q 295 680 336 671 q 376 663 409 663 q 442 663 450 637 q 459 612 459 546 q 459 510 438 510 q 434 510 409 551 q 359 634 275 634 q 191 634 162 586 q 146 560 146 533 q 146 511 156 489 q 171 458 212 433 q 227 424 315 385 q 403 346 433 319 q 493 265 493 197 z"},"}":{"x_min":0,"x_max":378,"ha":378,"o":"m 223 132 l 224 120 l 226 96 q 230 59 230 -5 q 230 -69 188 -110 q 146 -150 78 -150 q 62 -150 62 -146 q 62 -135 96 -111 q 129 -87 142 -57 q 154 -26 154 47 l 153 116 q 153 189 170 222 q 188 254 217 271 l 236 281 q 236 285 224 291 q 212 297 198 307 q 184 317 168 347 q 152 377 152 453 l 155 533 q 155 594 140 623 q 126 653 94 675 q 62 698 62 705 q 62 713 88 713 q 114 713 147 699 q 179 686 198 663 q 230 624 230 532 l 223 404 q 223 337 277 308 q 309 291 309 284 q 309 277 278 258 q 247 238 235 216 q 223 194 223 132 z"},"Z":{"x_min":0,"x_max":603,"ha":603,"o":"m 562 151 l 562 135 q 562 75 542 37 q 535 22 524 16 q 499 1 310 1 l 117 1 q 47 1 47 23 q 47 57 231 322 q 415 587 415 611 q 415 625 314 625 q 213 625 161 602 q 134 589 109 553 q 83 516 73 516 q 63 516 63 552 q 63 641 90 660 q 109 674 264 674 l 362 674 q 483 674 513 671 q 543 667 543 650 q 543 624 359 353 q 174 83 174 72 q 174 50 286 50 q 397 50 454 76 q 488 91 513 130 q 539 170 552 170 q 562 170 562 151 z"},"x":{"x_min":0,"x_max":521,"ha":521,"o":"m 372 2 q 309 2 309 16 q 309 21 318 30 q 328 40 328 54 q 328 67 289 123 q 251 178 245 178 q 235 178 199 130 q 163 81 163 53 q 163 48 171 36 q 179 23 179 19 q 179 0 122 0 l 93 0 q 29 0 29 17 q 29 27 58 42 q 86 58 106 79 q 208 189 208 222 q 208 255 106 383 q 93 399 66 416 q 40 432 40 439 q 40 462 157 462 l 171 462 q 218 462 218 446 q 218 442 209 431 q 200 420 200 417 q 200 395 234 349 q 267 302 270 302 q 280 302 312 343 q 343 383 343 405 q 343 415 334 429 q 325 443 325 447 q 325 462 399 462 q 473 462 473 448 q 473 435 444 418 q 414 402 389 373 q 309 281 309 252 q 309 223 423 81 q 437 63 462 48 q 488 33 488 25 q 488 2 372 2 z"},")":{"x_min":0,"x_max":346,"ha":346,"o":"m 51 -153 q 40 -153 40 -137 q 40 -132 101 -50 q 193 75 193 292 q 193 417 152 518 q 130 572 101 611 q 39 696 39 699 q 39 713 52 713 q 75 713 127 661 q 180 608 215 542 q 279 421 279 280 l 278 269 q 278 67 135 -93 q 80 -153 51 -153 z"},"&":{"x_min":0,"x_max":729,"ha":729,"o":"m 270 47 l 287 47 q 320 47 356 71 q 393 94 393 112 l 393 115 q 393 132 312 235 q 231 337 222 337 q 195 337 164 296 q 132 255 132 218 l 131 209 l 131 196 q 131 139 173 93 q 215 47 270 47 z m 375 559 q 375 584 353 610 q 331 635 306 635 l 292 635 q 264 635 243 611 q 222 587 222 550 l 222 534 q 222 500 256 446 q 273 418 285 418 l 290 418 q 314 418 345 458 q 377 499 377 529 l 377 544 l 376 547 l 376 550 q 375 556 375 559 z m 641 77 q 654 77 654 70 q 654 63 632 46 q 609 28 582 28 q 554 28 497 39 q 440 49 406 49 q 405 49 405 49 q 397 49 375 40 q 294 8 239 8 q 158 8 105 57 q 52 105 52 186 q 52 234 80 277 q 95 301 140 343 q 185 385 185 404 q 185 415 167 457 q 150 499 150 543 q 150 587 188 627 q 225 667 281 667 q 338 667 377 636 q 416 606 416 549 q 416 520 383 452 q 350 384 350 370 q 350 335 389 291 q 429 246 456 246 q 483 246 501 278 q 509 292 518 322 q 527 352 528 363 q 529 375 534 381 q 539 387 565 387 q 639 387 639 373 q 639 370 612 339 q 585 308 577 292 q 534 212 534 176 q 534 139 571 108 q 609 77 641 77 z"},"_":{"x_min":0,"x_max":510,"ha":510,"o":"m 508 -86 l 508 -113 q 508 -125 486 -125 l 27 -125 q 1 -125 1 -111 l 1 -90 q 1 -73 23 -73 l 481 -73 q 508 -73 508 -86 z"},"v":{"x_min":0,"x_max":513,"ha":513,"o":"m 258 -4 q 229 -4 208 45 q 186 94 138 224 q 91 354 80 372 q 69 391 44 408 q 19 425 19 438 q 19 461 77 461 l 136 461 q 195 461 195 441 q 195 440 183 424 q 170 407 170 383 q 170 358 253 145 q 268 107 271 107 q 277 107 289 135 q 373 346 373 398 q 373 411 360 425 q 347 439 347 449 q 347 461 383 461 l 406 461 l 418 461 q 490 461 490 440 q 490 428 464 405 q 438 382 434 375 q 429 367 373 220 q 316 73 298 35 q 280 -4 258 -4 z"},"O":{"x_min":0,"x_max":735,"ha":735,"o":"m 572 317 l 572 347 q 571 405 557 459 q 523 580 443 624 q 408 642 370 642 l 361 642 q 326 642 287 622 q 248 602 220 559 q 164 473 164 353 l 164 333 q 164 216 218 129 q 246 86 285 62 q 324 38 368 38 l 376 38 q 414 38 450 58 q 525 99 555 203 q 572 264 572 317 z m 63 328 l 63 352 q 63 422 88 486 q 114 549 154 594 q 195 639 248 665 q 301 691 361 691 l 383 691 q 442 691 498 665 q 554 640 595 592 q 682 492 682 352 l 682 340 q 682 267 657 200 q 633 134 589 85 q 501 -12 368 -12 q 364 -13 359 -13 q 310 -13 146 91 q 107 136 85 200 q 63 265 63 328 z"},"(":{"x_min":0,"x_max":346,"ha":346,"o":"m 293 -153 q 271 -153 219 -101 q 120 -1 84 144 q 68 209 68 259 l 68 303 q 68 360 86 429 q 123 565 220 661 q 272 713 296 713 q 307 713 307 697 q 307 693 245 610 q 153 486 153 268 q 153 148 191 51 q 215 -9 247 -52 q 308 -134 308 -139 q 308 -153 293 -153 z"},"C":{"x_min":0,"x_max":657,"ha":657,"o":"m 369 -9 l 351 -9 q 294 -9 236 16 q 178 40 134 89 q 90 137 68 199 q 46 261 46 321 l 46 339 q 46 340 46 342 q 46 413 71 475 q 124 607 245 659 q 296 681 346 681 q 396 681 440 672 q 484 664 528 664 q 573 664 587 633 q 601 603 601 549 q 601 496 585 496 q 573 496 547 534 q 521 573 487 595 q 432 630 375 630 q 269 630 210 549 q 151 469 151 337 q 151 205 223 120 q 283 50 392 50 q 438 50 484 74 q 504 84 545 117 q 586 151 601 151 q 610 151 610 134 q 610 117 588 84 q 566 51 542 37 q 519 22 467 7 q 414 -9 369 -9 z"},"W":{"x_min":0,"x_max":931,"ha":931,"o":"m 750 571 q 750 640 832 640 q 873 640 873 622 l 869 612 l 860 603 l 851 588 q 832 556 826 532 q 719 147 710 127 q 682 59 645 59 q 620 59 587 131 q 555 204 515 324 q 476 444 468 444 q 459 444 412 297 q 365 150 352 120 q 338 90 322 67 q 306 43 288 43 q 270 43 255 59 q 240 74 226 111 q 212 148 178 264 q 144 380 127 426 q 110 472 100 525 l 95 547 q 90 569 84 589 l 79 606 l 71 620 l 65 632 l 65 642 q 65 659 92 659 q 161 659 188 645 q 215 630 215 595 l 213 558 q 213 509 242 408 q 271 307 307 235 q 312 223 317 223 q 326 223 333 248 q 397 472 397 601 q 397 643 467 643 q 485 643 513 626 q 540 608 551 588 q 556 580 556 557 q 557 535 560 513 q 563 492 581 437 q 638 250 649 250 q 667 250 676 276 q 698 333 734 458 q 750 512 750 571 z"},"A":{"x_min":0,"x_max":683,"ha":683,"o":"m 387 279 q 419 279 419 289 q 419 298 375 433 q 330 567 328 567 q 327 567 315 536 q 232 314 232 291 l 232 288 q 232 281 248 281 l 255 280 l 373 279 z m 170 86 q 170 65 188 42 q 206 20 206 20 q 206 9 186 9 q 96 9 62 15 q 29 22 29 37 q 29 46 48 60 q 66 74 73 81 q 104 113 137 207 q 150 245 178 320 q 206 396 218 433 q 230 471 239 495 q 248 521 260 559 q 295 676 342 676 l 343 676 q 353 676 365 667 q 390 648 414 592 q 437 537 502 347 q 567 158 585 123 q 604 87 622 73 q 658 43 658 37 q 658 21 630 14 q 603 8 517 8 l 503 8 q 447 8 447 25 q 447 31 465 44 q 482 57 482 72 q 482 87 465 147 q 448 207 433 221 q 418 236 334 236 l 276 235 q 221 235 205 212 q 170 166 170 86 z"},"f":{"x_min":0,"x_max":358,"ha":358,"o":"m 300 689 q 337 689 360 673 q 384 657 384 629 q 384 601 357 601 q 345 601 318 617 q 291 633 271 633 q 238 633 219 605 q 201 578 201 531 q 201 484 215 465 q 229 445 257 434 q 284 422 284 412 q 284 403 256 393 q 228 383 221 375 q 209 361 209 293 l 208 268 q 208 255 208 243 l 207 231 l 207 219 q 204 180 204 135 q 204 91 210 75 q 216 58 237 44 q 258 29 258 20 q 258 -2 117 -2 l 83 -2 q 53 -2 53 13 q 53 21 74 35 q 95 48 102 78 q 110 108 110 228 q 110 347 104 369 q 99 390 80 403 q 61 417 61 428 q 61 440 78 460 q 96 480 104 504 q 137 600 170 635 q 222 689 300 689 z"},"Q":{"x_min":0,"x_max":750,"ha":750,"o":"m 158 372 l 158 333 q 158 284 175 228 q 206 123 279 76 q 320 50 355 50 l 369 50 q 412 50 446 74 q 479 99 515 141 q 584 226 584 333 l 584 361 q 584 414 569 468 q 553 521 524 559 q 496 596 459 616 q 423 637 385 637 l 360 637 q 323 637 284 616 q 207 575 174 471 q 158 423 158 372 z m 59 341 q 59 491 153 590 q 246 688 375 688 l 390 688 q 516 688 604 585 q 678 499 678 351 q 678 260 640 177 q 602 95 534 43 q 512 25 512 11 q 512 -11 573 -48 q 608 -69 652 -83 q 697 -97 697 -105 q 697 -113 682 -123 q 667 -132 628 -132 l 614 -132 q 544 -132 419 -80 q 293 -29 216 35 q 139 100 92 197 q 59 266 59 341 z"},"w":{"x_min":0,"x_max":736,"ha":736,"o":"m 453 378 l 451 364 l 449 349 q 449 324 473 240 q 497 157 511 157 q 534 157 549 196 q 595 320 595 374 q 595 384 590 401 q 585 419 585 424 q 585 444 603 451 q 621 458 661 458 q 701 458 701 438 q 701 427 687 408 q 672 389 657 356 q 642 324 607 211 q 571 99 550 56 q 529 14 507 14 q 484 14 461 61 q 449 87 412 194 q 376 302 367 302 q 359 302 327 205 q 295 108 271 60 q 246 11 223 11 q 201 11 174 74 q 163 100 122 233 q 81 367 56 395 q 31 422 31 429 q 31 446 47 452 q 63 459 110 459 l 128 459 q 154 459 166 451 q 177 444 177 426 l 171 375 q 171 352 194 272 q 216 192 228 170 q 240 147 249 147 q 267 147 298 255 q 311 299 311 347 l 308 408 q 308 420 324 435 q 341 449 373 449 q 405 449 429 429 q 453 409 453 378 z"},"-":{"x_min":0,"x_max":349,"ha":349,"o":"m 306 277 l 306 264 l 305 261 q 305 234 288 229 q 277 226 167 226 l 137 226 l 130 226 l 114 226 l 104 225 l 94 225 l 78 224 l 62 224 q 42 224 42 244 l 42 256 q 42 285 53 290 q 65 294 180 294 l 276 297 l 279 297 q 306 297 306 277 z"},"E":{"x_min":0,"x_max":610,"ha":610,"o":"m 563 134 q 563 90 548 55 q 533 21 512 11 q 491 1 375 1 l 332 1 l 311 1 q 289 2 216 2 q 143 2 101 8 q 60 15 60 34 l 67 43 l 94 58 q 113 72 120 99 q 127 126 127 333 q 127 539 122 567 q 118 595 100 612 l 87 623 l 76 630 q 64 640 64 646 q 64 663 116 668 q 167 672 300 672 l 342 673 l 384 673 q 477 673 500 661 q 533 642 533 569 q 533 543 522 543 q 517 543 497 567 q 478 591 440 606 q 402 620 315 620 q 259 620 243 584 q 222 539 222 444 q 222 416 243 404 q 263 392 305 392 q 347 392 371 411 l 382 422 l 393 435 q 403 446 414 446 l 425 440 q 440 425 440 339 q 440 254 420 254 q 409 254 397 267 q 369 300 366 302 q 342 315 296 315 q 249 315 233 298 q 218 281 218 246 q 218 139 238 95 q 250 72 270 63 q 290 54 347 54 q 455 54 503 101 q 550 147 553 147 q 563 147 563 134 z"},"s":{"x_min":0,"x_max":427,"ha":427,"o":"m 49 98 l 49 110 q 49 139 64 139 q 64 139 65 139 q 74 139 93 108 q 140 34 215 34 q 258 34 282 54 q 307 74 307 109 q 307 144 266 169 q 249 180 183 208 q 118 236 93 259 q 56 294 56 346 q 56 397 97 434 q 138 470 200 470 l 213 470 q 227 470 261 463 q 295 457 318 457 q 341 457 349 438 q 358 418 358 380 q 358 341 346 341 q 334 341 313 369 q 292 398 267 412 q 243 427 202 427 q 162 427 138 398 q 125 383 125 365 q 125 350 134 334 q 151 306 232 274 q 313 243 348 212 q 382 182 382 130 l 382 118 q 382 65 335 28 q 288 -8 221 -8 q 200 -8 160 0 q 121 9 103 9 l 83 8 q 49 8 49 98 z"},">":{"x_min":0,"x_max":556,"ha":556,"o":"m 463 246 q 88 42 71 42 q 62 42 62 66 q 62 91 92 111 q 122 130 268 208 q 414 285 414 289 q 414 291 299 349 q 183 407 110 451 q 60 481 60 507 q 60 532 70 532 q 109 532 460 331 q 498 310 498 287 q 498 265 463 246 z"},"l":{"x_min":0,"x_max":312,"ha":312,"o":"m 105 465 q 105 560 99 592 q 93 625 83 632 q 74 640 60 646 q 45 652 45 660 q 45 669 55 674 q 87 691 163 691 q 187 691 190 667 q 190 663 190 630 l 189 582 q 189 572 189 562 l 189 542 l 189 492 q 189 125 225 68 q 233 55 254 43 q 275 32 275 22 q 275 0 216 0 l 197 0 l 187 1 l 149 1 q 64 1 64 18 q 64 26 79 37 q 95 47 99 61 q 103 74 103 144 l 103 154 l 103 173 l 105 263 l 105 324 l 105 354 z"},"8":{"x_min":0,"x_max":537,"ha":537,"o":"m 402 154 l 402 168 q 402 221 365 256 q 327 291 285 307 q 243 323 237 323 l 233 323 q 198 323 160 273 q 133 238 133 193 l 133 179 q 133 124 171 83 q 208 42 269 42 l 283 42 q 332 42 367 74 q 402 106 402 154 z m 385 511 l 385 527 q 385 564 360 594 q 326 635 277 635 l 257 635 q 214 635 185 607 q 157 578 157 538 l 157 531 q 157 487 194 453 q 252 401 292 401 l 299 401 q 332 401 358 438 q 385 475 385 511 z m 465 111 q 433 37 351 7 q 310 -8 266 -8 q 176 -8 120 38 q 91 61 75 94 q 59 127 59 161 l 59 171 q 59 255 129 314 q 172 351 172 352 q 172 361 144 385 q 82 436 82 511 q 82 545 97 579 q 112 613 141 638 q 194 685 278 685 q 362 685 409 640 q 457 596 457 520 q 457 460 397 406 q 362 374 362 369 q 362 365 395 342 q 429 319 455 282 q 481 245 481 197 q 481 148 465 111 z"},"\\":{"x_min":0,"x_max":421,"ha":421,"o":"m 359 -62 q 334 -62 311 -3 q 255 139 143 411 q 30 684 30 696 q 30 705 64 705 q 85 705 106 662 q 120 632 149 555 q 179 479 232 348 l 361 34 q 393 -43 393 -53 q 393 -62 359 -62 z"},"e":{"x_min":0,"x_max":473,"ha":473,"o":"m 346 311 l 346 317 q 346 354 318 385 q 291 416 250 416 l 231 416 q 188 416 160 380 q 132 343 132 302 q 132 283 201 283 l 262 283 l 265 284 l 298 286 l 302 286 l 319 288 q 346 288 346 311 z m 416 105 q 425 105 425 94 q 425 83 407 61 q 388 40 344 18 q 300 -4 252 -4 q 155 -4 99 58 q 43 120 43 222 q 43 374 166 441 q 204 462 248 462 l 268 462 q 331 462 376 422 q 400 400 415 368 q 429 336 429 313 l 429 303 q 429 272 397 262 q 365 253 270 249 q 175 244 163 239 q 136 228 136 192 q 136 129 181 87 q 217 54 279 54 q 310 54 352 73 q 356 76 383 91 q 409 105 416 105 z"},"b":{"x_min":0,"x_max":537,"ha":537,"o":"m 404 217 l 404 229 l 403 235 q 403 309 371 360 q 339 411 288 411 l 283 411 q 232 411 198 361 q 179 333 179 271 l 178 260 l 177 238 l 177 188 q 177 106 198 78 q 229 36 279 36 l 284 36 q 338 36 371 88 q 404 141 404 217 z m 41 682 q 72 704 135 704 q 159 704 165 680 q 167 672 167 547 q 167 421 182 421 q 184 421 225 439 q 267 458 303 458 q 384 458 436 395 q 461 364 474 323 q 488 281 488 241 l 488 228 q 488 125 431 61 q 374 -4 296 -4 q 263 -4 214 10 q 166 25 158 25 q 151 25 137 19 q 122 13 113 13 q 84 13 84 87 l 90 209 q 90 227 90 244 l 89 256 q 89 268 89 279 l 87 396 q 87 408 87 419 l 84 534 q 84 598 72 620 q 67 629 47 640 q 28 651 28 662 q 28 673 41 682 z"},"%":{"x_min":0,"x_max":791,"ha":791,"o":"m 597 305 l 587 305 q 563 305 542 275 q 521 245 521 203 q 520 191 520 191 l 520 174 l 520 153 q 520 97 540 64 q 561 32 586 32 l 596 32 q 619 32 640 61 q 660 90 660 133 q 661 142 661 145 l 662 162 l 662 179 q 662 229 645 267 q 627 305 597 305 z m 209 645 l 200 645 q 172 645 152 608 q 132 571 132 516 l 132 486 q 132 440 149 403 q 166 365 196 365 l 206 365 q 240 365 258 408 q 275 450 275 507 l 275 512 l 275 516 q 275 575 256 610 q 237 645 209 645 z m 583 352 l 603 352 q 626 352 652 338 q 678 325 694 301 q 728 251 728 184 l 728 178 q 728 103 686 51 q 644 -1 578 -1 l 573 -1 q 517 -1 479 46 q 442 92 442 167 l 443 173 q 443 247 485 300 q 527 352 583 352 z m 584 680 l 592 680 q 612 680 612 674 q 612 652 252 60 q 216 0 194 0 l 187 0 q 167 0 167 6 l 167 11 q 167 41 535 634 q 563 680 584 680 z m 188 688 l 203 688 q 260 688 299 639 q 338 590 338 520 l 338 509 q 338 434 296 385 q 254 336 194 336 l 189 336 q 131 336 90 383 q 50 430 50 499 l 50 516 q 50 591 92 640 q 134 688 188 688 z"},"m":{"x_min":0,"x_max":811,"ha":811,"o":"m 137 448 q 166 448 178 427 q 196 394 200 394 l 247 417 q 282 434 321 434 q 360 434 379 426 q 399 418 420 405 q 440 391 447 391 q 453 391 504 421 q 554 451 592 451 q 593 451 594 451 q 671 451 702 379 q 722 332 722 188 q 722 125 728 108 q 734 91 750 75 q 765 59 765 50 q 765 41 751 33 q 708 9 652 9 q 625 9 625 21 q 625 21 635 37 q 646 54 646 78 l 645 98 l 643 138 q 641 193 641 201 q 641 301 628 331 q 616 362 594 373 q 572 384 549 384 q 526 384 507 371 q 488 357 481 343 q 462 305 462 136 q 462 96 473 80 l 484 69 q 505 49 505 47 q 505 31 491 25 q 464 16 364 16 q 319 16 319 34 q 319 43 334 58 q 349 73 353 86 q 357 99 357 198 q 357 297 345 336 q 333 375 313 385 q 302 392 279 392 q 255 392 229 370 q 202 349 190 324 q 179 298 179 212 l 182 66 q 182 51 189 40 l 196 32 q 206 21 206 16 q 206 6 187 6 l 169 6 q 118 6 83 17 q 47 27 47 44 q 47 51 67 67 q 86 83 92 97 q 98 112 98 241 q 98 370 93 384 q 88 399 77 410 q 66 420 66 426 q 86 448 137 448 z"},"#":{"x_min":0,"x_max":586,"ha":586,"o":"m 215 264 l 245 264 l 248 265 l 277 265 q 342 265 347 272 q 347 272 363 334 q 378 396 378 408 q 378 419 372 419 l 336 419 l 333 419 l 310 419 q 243 419 238 409 q 233 399 227 365 q 222 332 215 305 q 208 279 208 271 q 208 264 215 264 z m 477 654 q 477 637 467 587 q 456 538 456 505 q 456 483 498 477 q 541 471 541 457 l 541 444 q 541 426 494 422 q 447 418 436 403 q 411 371 411 290 q 411 268 452 265 q 513 261 513 240 q 513 220 491 212 q 490 212 453 208 q 417 205 401 189 q 386 174 374 108 q 362 41 358 32 q 349 12 324 12 q 305 12 305 38 q 305 50 317 113 q 330 175 330 188 q 330 207 270 207 q 211 207 202 197 q 194 187 182 125 q 171 63 160 37 q 149 10 129 10 q 108 10 108 22 q 108 34 120 91 q 131 148 131 168 q 131 188 125 195 q 120 202 83 208 q 46 213 46 233 q 46 253 69 260 l 84 262 q 113 265 117 266 q 145 271 154 285 q 175 315 175 398 q 175 416 123 421 q 72 425 72 446 q 72 463 82 468 q 92 474 136 477 q 179 480 189 491 q 199 501 213 569 q 226 637 227 639 q 235 668 260 668 q 284 668 284 649 l 258 498 q 258 483 268 480 q 279 477 327 477 q 375 477 384 485 q 392 493 404 557 q 416 621 426 645 q 437 668 457 668 q 477 668 477 654 z"},",":{"x_min":0,"x_max":271,"ha":271,"o":"m 196 40 l 196 25 q 196 -19 164 -70 q 122 -140 88 -140 l 85 -140 q 75 -140 75 -129 l 75 -125 q 75 -123 102 -86 q 128 -50 128 -27 q 128 -5 102 13 q 75 30 75 57 l 75 64 q 75 83 90 98 q 105 113 126 113 l 137 113 q 165 113 180 92 q 196 70 196 40 z"},"n":{"x_min":0,"x_max":574,"ha":574,"o":"m 55 423 q 55 449 157 449 q 182 449 192 423 q 207 387 211 387 q 215 388 239 402 q 303 441 365 441 q 426 441 456 398 q 477 367 477 250 q 477 134 488 105 q 493 92 514 75 q 536 59 536 50 q 536 42 525 36 q 486 15 390 15 q 371 15 371 24 q 371 29 386 42 l 392 48 q 402 61 402 100 l 401 115 l 400 130 l 400 159 q 400 290 379 340 q 367 368 344 383 q 321 398 291 398 q 229 398 197 352 q 180 326 180 214 q 180 102 186 80 q 191 59 208 43 q 226 27 226 19 q 226 3 173 3 l 158 3 q 41 3 41 26 q 41 41 58 52 q 88 72 94 87 q 99 103 99 172 l 100 204 l 101 235 l 97 325 q 97 375 93 388 q 88 401 72 410 q 55 418 55 423 z"},"h":{"x_min":0,"x_max":570,"ha":570,"o":"m 49 647 q 49 674 129 674 l 144 674 q 173 674 181 648 q 186 629 192 523 q 199 417 215 417 q 217 417 261 439 q 306 461 341 461 q 376 461 410 439 q 444 417 458 385 q 473 353 473 239 q 473 124 480 99 q 487 74 504 56 q 521 38 521 31 q 521 24 511 19 q 481 4 422 4 q 363 4 363 21 q 363 26 373 38 q 382 49 385 56 q 388 63 388 126 l 389 145 l 390 162 q 392 212 392 276 q 392 339 371 367 q 350 394 300 394 q 281 394 253 379 q 224 365 203 332 q 183 300 183 202 q 183 104 190 77 q 197 51 212 37 q 227 22 227 16 q 227 0 153 0 l 136 0 l 119 0 q 48 0 48 21 q 48 29 68 51 q 87 73 94 98 q 101 123 101 229 q 101 335 98 398 q 95 461 95 466 l 98 531 l 99 562 q 99 602 93 614 q 86 626 76 632 l 66 637 q 49 644 49 647 z"},"z":{"x_min":0,"x_max":466,"ha":466,"o":"m 425 114 l 425 102 q 425 37 401 14 q 387 0 334 0 l 321 0 l 307 0 l 267 0 l 240 1 l 212 1 q 88 1 76 2 q 43 4 43 21 q 43 49 171 218 q 299 387 299 402 q 299 416 229 416 q 159 416 136 406 q 114 396 93 369 q 73 342 67 342 q 55 342 55 372 q 55 432 72 451 q 83 464 138 464 l 152 463 l 232 462 l 245 461 l 313 461 q 379 461 394 458 q 409 455 409 439 q 409 413 281 239 q 153 66 153 59 q 153 47 230 47 q 308 47 337 60 q 365 73 387 102 q 408 131 414 131 q 425 131 425 114 z"},"B":{"x_min":0,"x_max":632,"ha":632,"o":"m 479 178 l 479 194 q 479 225 465 254 q 428 335 298 335 l 263 335 q 233 335 226 327 q 219 319 219 286 l 219 229 l 219 224 l 219 210 q 219 100 229 82 q 241 57 294 57 l 305 56 l 332 56 q 400 56 440 89 q 479 123 479 178 z m 447 506 l 447 521 q 447 573 409 601 q 372 629 314 629 l 296 629 q 240 629 229 614 q 219 598 219 493 l 219 488 l 219 455 l 218 438 l 219 434 q 219 430 219 426 l 220 410 q 220 383 261 383 l 286 383 q 359 383 403 414 q 447 444 447 506 z m 130 415 l 130 440 l 130 478 q 130 588 120 610 q 114 624 87 638 q 61 651 61 661 q 61 678 110 678 l 182 678 l 193 678 l 217 678 q 405 678 458 650 q 494 631 516 596 q 537 561 537 517 q 537 434 459 386 l 449 380 q 431 370 431 368 q 431 367 470 347 q 510 328 533 302 q 574 256 574 201 l 574 188 q 574 99 496 44 q 437 3 319 3 l 306 3 l 293 4 l 257 4 l 233 4 l 124 3 l 101 3 q 59 3 59 17 q 59 31 87 44 q 115 56 124 81 q 134 106 134 238 q 134 251 134 264 l 131 365 l 130 390 q 130 402 130 415 z"},"K":{"x_min":0,"x_max":690,"ha":690,"o":"m 652 21 q 652 3 570 3 q 488 3 468 16 q 447 29 447 73 q 447 118 376 212 q 304 307 276 307 q 257 307 244 285 q 225 250 225 178 q 225 106 233 84 q 241 62 260 45 q 280 28 280 15 q 280 2 172 2 l 129 2 q 65 2 65 21 q 65 29 91 47 q 118 64 123 107 q 125 122 125 343 q 125 564 120 587 q 114 609 87 627 q 61 645 61 654 q 61 675 229 675 q 278 675 278 658 q 278 657 257 635 q 236 613 228 576 q 220 540 220 432 q 220 377 237 377 q 278 377 401 526 q 446 582 446 622 l 442 634 q 437 649 437 656 q 437 676 500 676 q 609 676 609 658 q 609 653 552 605 q 496 558 430 484 q 364 411 364 382 q 364 353 548 118 q 578 80 615 52 q 652 24 652 21 z"},"R":{"x_min":0,"x_max":669,"ha":669,"o":"m 449 490 l 449 510 q 449 563 413 595 q 377 628 310 628 l 296 628 q 242 628 232 609 q 222 590 222 471 l 222 462 l 221 444 l 221 404 q 221 359 245 359 l 252 358 l 265 358 l 292 358 q 364 358 406 394 q 449 430 449 490 z m 644 34 q 644 7 563 7 q 514 7 488 33 q 462 60 420 150 q 378 240 351 273 q 323 307 282 307 q 242 307 235 281 q 229 255 229 176 q 229 97 244 69 q 251 56 272 42 q 293 27 293 22 q 293 3 199 3 l 183 4 q 101 4 81 9 q 61 13 61 28 q 61 36 87 51 q 114 66 123 89 q 131 111 131 217 l 132 285 l 133 371 q 133 553 125 587 q 116 621 99 634 l 89 640 l 79 646 q 67 653 67 658 q 67 676 219 676 l 285 677 l 319 677 q 481 677 530 579 q 547 545 547 499 q 547 453 523 416 q 500 379 467 354 q 434 329 434 312 q 434 303 480 218 q 526 132 549 104 q 571 77 592 66 q 644 41 644 34 z"},"T":{"x_min":0,"x_max":621,"ha":621,"o":"m 409 618 q 374 618 364 570 q 358 544 358 334 q 358 125 369 85 q 375 61 405 45 q 434 28 434 21 q 434 5 414 2 q 404 0 308 0 l 245 0 q 186 0 186 14 q 186 29 217 45 q 248 62 255 95 q 263 128 263 336 q 263 544 256 571 q 249 597 240 606 q 230 615 205 615 q 118 615 83 556 q 57 512 56 512 q 40 512 40 544 q 40 634 57 658 q 68 675 114 675 l 145 676 l 191 676 l 348 676 l 364 676 l 491 676 q 556 676 570 664 q 583 651 583 572 l 583 556 q 583 517 569 517 q 561 517 542 549 q 522 581 493 600 q 464 618 409 618 z"},"P":{"x_min":0,"x_max":596,"ha":596,"o":"m 278 333 l 292 333 q 366 333 408 372 q 451 411 451 482 q 451 554 417 591 q 382 628 328 628 l 324 628 l 319 629 l 300 629 l 295 629 q 253 629 240 620 q 226 611 226 579 q 225 565 225 565 l 224 551 l 224 522 l 224 507 l 224 479 l 223 474 l 223 450 l 223 440 q 223 436 223 431 l 222 417 q 222 412 222 407 l 222 393 q 222 353 229 343 q 235 333 278 333 z m 555 486 q 555 437 532 397 q 489 322 400 300 q 371 292 312 288 q 252 284 245 277 q 223 257 223 125 q 223 92 233 76 q 244 60 272 46 q 300 32 300 24 q 300 3 197 3 l 121 3 q 51 3 51 27 q 51 32 88 56 q 110 70 119 99 q 128 127 128 276 l 129 339 l 130 351 l 131 414 l 131 439 q 131 562 125 589 q 119 615 103 628 q 66 658 66 658 q 66 676 236 676 l 298 677 l 311 677 q 429 677 484 636 q 555 583 555 486 z"},"|":{"x_min":0,"x_max":374,"ha":374,"o":"m 217 666 l 217 -110 q 217 -155 212 -163 q 208 -171 191 -171 l 182 -171 q 165 -171 160 -164 q 155 -157 155 -110 l 155 674 q 155 719 160 728 q 165 736 181 736 l 190 736 q 208 736 212 729 q 217 721 217 666 z"},"t":{"x_min":0,"x_max":362,"ha":362,"o":"m 321 64 q 321 41 282 21 q 243 1 212 1 l 204 1 q 178 1 154 21 q 130 40 118 75 q 106 110 106 229 q 106 347 98 373 q 89 398 63 409 q 37 419 37 430 q 37 440 49 448 q 51 450 64 456 q 76 463 80 467 q 83 470 119 545 q 137 582 161 582 q 178 582 189 537 q 201 492 216 481 q 231 470 273 464 q 314 458 314 444 q 314 423 267 410 q 219 397 209 386 q 190 362 190 250 q 190 137 207 101 q 225 65 268 65 l 275 66 l 289 69 l 295 70 l 308 72 q 321 72 321 64 z"},"M":{"x_min":0,"x_max":868,"ha":868,"o":"m 60 646 q 60 666 126 666 q 193 666 213 654 q 233 643 252 612 q 271 581 341 407 l 352 378 q 368 337 374 321 l 419 209 l 431 192 q 440 192 522 389 q 604 586 625 621 q 647 655 661 662 q 676 669 719 669 q 762 669 787 661 q 801 656 801 639 l 789 625 l 772 611 q 757 595 751 565 q 744 536 744 453 l 746 329 q 746 160 751 123 q 757 85 769 68 l 784 52 l 802 41 l 815 28 q 815 4 721 4 l 692 4 q 616 4 616 25 q 616 37 631 57 q 646 77 651 110 q 656 144 656 312 l 657 431 q 657 535 644 535 q 635 535 550 321 q 465 107 458 92 q 433 39 411 39 q 396 39 380 70 l 358 125 q 332 192 264 362 q 197 532 187 532 q 176 532 176 330 l 176 270 l 176 240 q 177 210 177 160 q 177 109 184 88 q 190 67 204 50 q 218 33 218 20 q 218 7 160 7 q 49 7 49 24 q 49 35 69 51 q 104 77 111 108 q 118 139 118 258 l 119 288 q 119 318 119 349 l 121 470 q 121 556 113 581 q 105 607 83 625 q 60 643 60 646 z"},"g":{"x_min":0,"x_max":495,"ha":495,"o":"m 402 -88 l 402 -78 q 402 -49 372 -32 q 341 -14 290 -14 l 285 -14 l 280 -13 l 245 -12 l 206 -12 q 159 -12 127 -33 q 96 -55 96 -90 l 96 -101 q 96 -132 134 -155 q 173 -177 236 -177 l 241 -177 q 307 -177 354 -152 q 402 -126 402 -88 z m 322 291 l 322 299 q 322 351 299 387 q 275 424 237 424 l 226 424 q 191 424 169 392 q 147 361 147 324 l 146 316 l 146 291 q 146 248 169 211 q 192 175 231 175 l 242 175 q 279 175 300 209 q 322 243 322 291 z m 391 386 q 391 376 394 355 q 397 334 397 304 q 397 273 381 240 q 336 153 229 146 q 186 143 174 139 q 134 124 134 98 q 134 80 170 70 q 189 64 272 59 q 355 53 389 35 q 451 2 451 -65 q 450 -135 392 -178 q 333 -221 243 -221 q 242 -221 241 -221 q 100 -221 53 -150 q 39 -128 39 -105 l 39 -93 q 39 -58 91 -13 q 108 2 108 8 q 108 15 96 25 q 84 36 80 40 q 64 59 64 83 q 64 107 82 127 q 86 133 104 148 q 122 164 122 171 q 122 178 113 189 l 106 198 q 74 241 74 282 q 74 364 134 412 q 194 460 269 460 l 282 460 q 410 460 455 437 q 461 434 461 428 q 461 414 426 409 q 391 404 391 386 z"},"j":{"x_min":0,"x_max":285,"ha":285,"o":"m 213 372 l 213 40 q 213 -72 174 -129 q 152 -160 117 -177 q 82 -195 47 -195 q 12 -195 0 -184 q -13 -172 -13 -164 l -13 -156 q -13 -129 23 -129 q 32 -129 45 -134 q 58 -138 64 -138 q 101 -138 117 -86 q 130 -45 130 138 q 130 321 122 355 q 113 389 88 405 q 63 421 63 429 q 63 437 74 442 q 117 462 186 462 q 203 462 208 451 q 213 440 213 372 z m 218 634 l 218 620 q 216 616 216 608 q 216 601 204 589 q 191 576 177 576 q 171 574 167 574 l 159 574 l 157 574 l 155 574 q 136 574 123 587 q 110 600 110 616 l 110 627 q 110 647 124 661 q 138 675 153 675 l 164 677 l 173 677 q 192 677 205 664 q 218 651 218 634 z"},"i":{"x_min":0,"x_max":296,"ha":296,"o":"m 65 2 q 43 2 43 16 q 43 30 72 42 q 100 53 107 78 q 114 102 114 228 q 114 354 106 376 q 99 399 73 408 q 48 417 48 427 q 48 436 58 441 q 98 462 169 462 l 175 462 q 195 462 198 442 l 198 318 l 197 295 q 197 284 197 193 q 197 102 204 79 q 211 55 239 42 q 267 29 267 16 q 267 2 226 2 l 210 2 l 203 2 l 124 2 l 94 2 z m 205 629 l 205 617 q 205 605 193 590 q 181 576 167 576 q 165 575 163 575 l 156 574 l 143 574 q 133 576 127 576 q 121 576 108 588 q 96 601 96 619 l 96 629 q 96 645 108 659 q 120 674 136 674 l 137 674 l 139 675 l 154 676 l 155 676 q 178 676 191 662 q 205 649 205 629 z"},"y":{"x_min":0,"x_max":511,"ha":511,"o":"m 126 -187 q 100 -187 82 -173 q 63 -160 63 -148 q 63 -120 120 -120 q 154 -120 188 -77 q 221 -34 221 22 q 221 44 204 88 q 139 261 94 353 q 87 368 59 400 q 31 432 31 440 q 31 461 141 461 l 155 461 q 197 461 197 448 q 197 441 188 423 q 179 404 179 392 q 179 348 253 170 q 269 133 276 133 q 281 133 293 161 q 367 333 367 396 q 367 415 355 428 q 344 441 344 444 q 344 461 394 461 q 479 461 479 443 q 479 433 452 400 q 425 367 415 345 q 405 323 330 125 q 255 -72 235 -109 q 192 -187 139 -187 z"},"@":{"x_min":0,"x_max":779,"ha":779,"o":"m 346 165 l 352 165 q 396 165 435 221 q 452 246 469 296 q 485 347 485 385 l 485 392 q 485 414 473 427 q 461 441 440 441 l 431 441 q 386 441 349 383 q 300 308 300 249 l 300 227 q 300 202 312 183 q 324 165 346 165 z m 495 248 q 495 196 536 196 q 553 196 577 214 q 620 244 643 316 q 655 354 655 395 q 655 493 588 554 q 521 615 417 615 q 300 615 216 518 q 183 479 160 421 q 137 362 137 299 q 137 156 221 73 q 301 -6 420 -6 q 479 -6 549 21 q 615 45 619 45 l 620 45 q 620 22 537 -11 q 455 -43 387 -43 q 386 -43 385 -43 q 240 -43 155 49 q 69 142 69 272 q 69 361 97 430 q 152 564 275 621 q 344 653 407 653 l 436 653 q 491 653 544 633 q 653 591 695 488 q 714 439 714 381 q 714 277 659 207 q 604 136 534 136 q 511 136 493 148 l 479 162 l 469 176 l 460 185 l 447 181 l 430 170 l 411 160 q 382 147 348 147 q 315 147 291 177 q 266 206 266 265 q 266 296 281 334 q 296 373 317 399 q 359 453 407 453 l 426 451 l 441 445 l 456 442 l 469 446 q 496 454 501 454 q 525 454 525 430 q 525 423 510 352 q 495 280 495 248 z"},".":{"x_min":0,"x_max":270,"ha":270,"o":"m 130 112 l 134 112 q 161 112 176 94 q 190 77 190 53 l 190 47 q 190 25 177 9 q 164 -6 148 -6 l 135 -8 l 129 -8 l 127 -8 l 123 -8 q 119 -7 118 -7 q 104 -7 91 7 q 77 21 77 36 l 76 45 l 76 59 q 77 63 77 65 q 77 82 92 97 q 106 112 130 112 z"},"p":{"x_min":0,"x_max":549,"ha":549,"o":"m 413 254 q 413 319 380 367 q 348 416 297 416 l 288 416 q 237 416 204 367 q 184 338 184 250 l 184 203 l 185 197 l 185 182 l 186 162 q 186 118 209 93 q 243 57 281 57 l 300 57 q 343 57 377 104 q 412 151 412 212 l 413 224 z m 207 29 q 180 29 180 -37 q 180 -104 189 -122 q 198 -141 222 -155 q 246 -169 246 -179 q 246 -192 182 -192 l 169 -192 l 157 -191 l 145 -191 q 40 -191 40 -177 q 40 -165 64 -149 q 87 -133 95 -93 q 104 -53 104 146 q 104 346 97 370 q 91 395 77 405 q 47 427 47 433 q 47 438 54 444 q 80 464 148 464 q 166 464 175 445 l 181 428 q 185 416 188 416 q 195 416 217 430 q 278 470 322 470 q 400 470 445 420 q 473 390 488 351 q 503 312 503 276 l 503 249 q 503 202 487 160 q 450 64 371 30 q 333 14 300 14 q 266 14 237 21 q 208 29 207 29 z"},"X":{"x_min":0,"x_max":678,"ha":678,"o":"m 641 28 q 641 13 631 8 q 613 0 534 0 l 493 0 q 419 0 419 16 q 419 24 433 38 q 447 51 447 66 q 447 94 363 225 q 331 273 315 273 q 310 273 280 229 q 199 112 199 74 q 199 60 206 49 l 215 38 q 229 21 229 19 q 229 2 159 2 l 138 2 q 117 1 96 1 q 35 1 35 15 q 35 29 71 49 q 106 69 136 105 q 208 195 271 298 q 283 318 283 334 q 283 364 136 569 q 115 599 98 612 q 46 651 46 653 q 46 674 205 674 q 271 674 271 656 q 271 652 257 639 q 242 626 242 619 q 242 585 310 481 q 345 426 356 426 q 364 426 392 465 q 466 571 466 604 q 466 620 459 631 l 450 641 q 435 655 435 659 q 435 674 488 674 l 509 674 l 530 674 q 623 674 623 656 q 623 647 588 627 q 553 607 527 576 q 395 408 395 365 q 395 322 550 112 q 571 83 589 68 l 604 57 l 619 48 q 641 34 641 28 z"},"*":{"x_min":0,"x_max":454,"ha":454,"o":"m 259 655 q 259 645 254 612 q 248 579 248 560 q 248 552 262 552 q 265 552 298 574 q 331 597 345 597 q 368 597 368 578 l 368 572 q 368 542 315 519 q 298 511 298 506 q 298 501 318 468 q 338 434 338 428 q 338 411 325 411 q 323 411 304 417 q 285 423 268 423 q 258 423 255 402 q 252 381 238 381 l 224 383 l 209 382 q 195 382 195 404 q 195 425 181 425 q 176 425 159 421 l 138 416 q 117 412 116 412 q 109 412 109 427 q 109 441 133 471 q 158 500 158 507 q 157 510 141 518 q 83 544 83 581 q 83 603 107 603 q 124 603 159 577 q 194 552 201 552 q 208 552 208 558 l 197 648 q 197 685 228 685 q 259 685 259 655 z"},"Y":{"x_min":0,"x_max":647,"ha":647,"o":"m 372 164 q 372 101 381 78 q 390 55 416 41 q 442 27 442 13 q 442 0 396 0 l 365 0 l 349 0 l 318 0 l 303 1 l 256 1 q 202 1 202 19 q 202 28 231 41 q 260 55 267 70 q 281 100 281 178 q 281 256 272 279 q 264 302 196 426 q 127 550 108 577 q 88 604 60 621 q 32 639 32 651 q 32 674 167 674 l 198 674 q 243 674 243 654 q 243 648 228 636 q 213 625 213 610 q 213 579 305 415 q 338 356 346 356 q 354 356 386 411 q 474 561 474 607 q 474 622 459 638 q 444 654 444 657 q 444 673 532 673 q 620 673 620 654 q 620 644 576 613 q 553 596 527 556 q 455 442 397 323 q 372 271 372 164 z"},"c":{"x_min":0,"x_max":470,"ha":470,"o":"m 259 -8 l 248 -8 q 155 -8 93 62 q 69 89 54 130 q 39 171 39 218 l 39 230 q 39 280 56 323 q 92 412 168 447 q 209 467 252 467 l 263 467 q 334 467 390 434 q 418 417 418 378 q 418 339 387 339 q 375 339 354 367 q 332 395 311 406 q 290 418 258 418 q 202 418 164 370 q 126 322 126 237 q 126 152 168 102 q 209 51 282 51 q 317 51 362 78 q 407 104 419 104 q 427 104 427 90 q 427 59 369 25 q 310 -8 259 -8 z"},"!":{"x_min":0,"x_max":299,"ha":299,"o":"m 208 46 q 208 22 195 9 q 181 -5 168 -5 l 154 -8 l 146 -8 q 126 -8 112 6 q 98 21 98 37 l 96 46 l 96 56 l 97 58 l 97 61 q 98 65 98 72 q 98 79 111 92 q 125 106 140 106 l 151 107 l 155 107 l 168 105 q 180 105 193 92 q 207 79 207 63 q 208 61 208 58 l 208 50 z m 163 686 q 204 686 204 632 l 204 626 l 203 622 l 202 601 q 201 585 201 574 l 200 563 q 199 557 199 552 l 198 535 q 197 524 197 518 l 185 368 q 181 327 181 322 l 180 304 q 178 287 178 281 l 177 258 l 176 247 l 175 236 q 175 186 154 186 l 149 186 q 128 186 128 242 l 127 265 q 126 276 126 282 l 125 293 q 125 299 125 304 l 124 315 q 123 327 123 333 l 121 350 q 120 367 120 372 l 110 494 l 108 518 q 106 541 106 546 l 104 579 l 103 589 q 101 616 101 620 l 101 635 q 101 658 115 672 q 128 686 151 686 z"},"/":{"x_min":0,"x_max":409,"ha":409,"o":"m 59 -67 l 42 -67 q 24 -67 24 -60 q 24 -50 39 -13 l 46 3 q 62 44 73 69 l 80 86 q 86 103 89 111 l 106 153 q 126 203 142 244 q 158 286 172 319 q 186 352 199 388 q 213 424 238 486 l 245 502 q 251 519 254 527 l 271 569 q 275 581 286 610 q 297 640 302 652 q 326 708 353 708 q 380 708 380 700 q 380 689 356 634 q 333 579 297 485 q 261 391 243 348 q 226 306 203 247 l 169 164 q 156 129 133 69 q 109 8 104 -3 q 77 -67 59 -67 z"},"[":{"x_min":0,"x_max":340,"ha":340,"o":"m 270 -142 l 259 -142 l 248 -141 q 205 -139 179 -139 q 114 -139 104 -119 q 98 -106 98 12 l 98 202 l 97 237 l 97 249 l 96 284 l 96 296 l 97 308 q 97 320 97 332 l 98 343 q 98 355 98 373 l 98 508 q 98 667 103 681 q 108 695 123 701 q 137 707 170 707 q 203 707 214 707 l 249 708 l 260 708 q 295 708 295 693 q 295 678 263 670 q 255 668 232 664 q 208 660 203 657 q 186 648 179 621 q 172 594 172 283 q 172 -27 179 -52 q 187 -77 199 -85 q 212 -93 254 -102 q 295 -111 295 -124 q 295 -142 270 -142 z"},"6":{"x_min":0,"x_max":539,"ha":539,"o":"m 397 186 l 397 218 q 397 283 363 327 q 328 371 281 371 l 267 371 q 222 371 187 333 q 151 294 151 238 l 151 211 q 151 136 190 87 q 228 38 278 38 l 283 39 q 330 39 364 81 q 397 124 397 186 z m 287 -5 l 274 -5 q 227 -5 183 19 q 99 63 68 169 q 51 229 51 289 l 51 303 q 52 375 73 438 q 119 572 222 627 q 278 657 334 657 l 345 657 q 379 657 410 644 q 440 630 440 611 q 440 596 412 596 q 402 596 382 603 q 363 609 339 609 q 315 609 280 594 q 245 579 217 548 q 189 518 175 479 q 160 439 160 410 q 160 381 183 381 q 185 381 225 394 q 265 407 300 407 q 336 406 370 392 q 443 360 472 281 q 486 242 486 207 l 486 194 q 486 110 429 53 q 371 -5 287 -5 z"},"r":{"x_min":0,"x_max":401,"ha":401,"o":"m 55 431 q 86 451 151 451 q 180 451 188 428 q 202 391 210 391 q 218 391 236 406 q 255 422 261 426 q 290 445 317 445 q 344 445 358 430 q 373 415 373 397 q 373 380 362 368 q 352 356 343 356 q 333 356 313 368 q 293 381 275 381 q 256 381 235 364 q 214 347 205 322 q 186 273 186 187 q 186 101 197 78 q 208 56 233 41 q 259 25 259 16 q 259 0 127 0 l 107 0 l 68 0 q 38 0 38 14 q 38 28 63 40 q 88 51 93 63 q 102 83 102 213 q 102 223 102 233 l 102 264 l 101 316 q 101 357 91 374 q 81 391 64 401 q 47 412 47 419 q 47 426 55 431 z"},"2":{"x_min":0,"x_max":532,"ha":532,"o":"m 69 31 q 69 89 220 250 q 295 330 325 376 q 355 422 355 472 q 355 522 325 555 q 294 587 246 587 q 198 587 161 556 q 145 542 130 508 q 116 473 98 473 q 75 473 75 513 q 75 536 91 565 q 106 593 137 616 q 188 653 256 653 l 272 653 q 351 653 401 604 q 451 555 451 484 q 451 414 406 352 q 384 321 308 252 q 232 182 204 151 q 175 120 175 96 l 180 91 q 199 75 270 75 q 340 75 370 84 q 401 93 427 109 q 452 126 454 126 q 469 126 469 96 q 469 33 440 14 q 423 2 340 2 l 324 2 l 132 9 q 69 9 69 31 z"},"{":{"x_min":0,"x_max":378,"ha":378,"o":"m 69 280 q 69 292 97 306 q 124 320 140 343 q 155 365 155 420 q 155 432 152 474 q 148 516 148 551 q 148 635 190 674 q 232 713 302 713 q 318 713 318 708 l 318 702 q 318 697 288 676 q 258 655 242 626 q 227 597 227 527 l 229 436 q 229 328 162 294 q 146 286 146 283 q 146 281 158 274 q 170 268 185 257 q 199 247 213 215 q 228 184 228 100 l 226 30 q 226 -35 247 -72 q 256 -89 287 -112 q 317 -134 317 -142 q 317 -150 306 -150 l 295 -150 q 264 -150 231 -136 q 198 -123 179 -99 q 148 -60 148 31 l 155 149 q 155 197 142 219 q 128 240 111 251 q 69 279 69 280 z"},"9":{"x_min":0,"x_max":539,"ha":539,"o":"m 387 421 l 387 437 q 387 507 354 561 q 338 588 313 603 q 289 618 266 618 l 252 618 q 210 618 176 575 q 143 533 143 466 l 143 439 q 143 375 177 330 q 212 286 257 286 l 271 286 q 324 286 355 326 q 387 366 387 421 z m 486 377 l 486 350 q 486 278 465 215 q 419 82 316 29 q 258 -1 203 -1 l 192 -1 q 155 -1 126 13 q 96 27 96 44 q 96 59 127 59 q 138 59 155 53 q 172 48 198 48 q 225 48 261 64 q 297 80 324 110 q 352 140 366 177 q 379 214 379 245 q 379 276 350 276 q 346 276 329 269 q 312 262 293 256 q 275 250 239 250 q 166 250 109 308 q 53 366 53 451 l 53 464 q 53 500 67 538 q 97 613 170 645 q 209 662 242 662 l 267 662 q 315 662 358 638 q 441 590 471 484 q 486 430 486 377 z"}," ":{"x_min":0,"x_max":271,"ha":271,"o":""},"I":{"x_min":0,"x_max":358,"ha":358,"o":"m 276 0 l 234 0 l 224 0 l 170 0 l 128 0 l 87 0 q 53 0 53 16 q 53 27 84 42 q 116 57 124 89 q 131 121 131 338 q 131 556 124 586 q 117 616 97 628 q 53 654 53 660 q 53 676 83 676 l 125 676 l 136 676 l 242 676 l 272 676 q 306 676 306 660 q 306 648 274 634 q 243 619 235 584 q 227 550 227 336 q 227 122 234 91 q 241 59 262 48 q 306 23 306 17 q 306 0 276 0 z"},"H":{"x_min":0,"x_max":755,"ha":755,"o":"m 472 31 q 472 31 492 49 q 513 66 522 104 q 531 142 531 257 q 531 316 505 326 q 486 333 373 333 q 260 333 239 322 q 218 310 218 249 q 218 119 226 94 q 233 69 244 56 l 255 45 q 272 29 272 24 q 272 1 129 1 l 106 1 q 48 1 48 24 q 48 31 77 44 q 106 58 115 84 q 123 111 123 330 q 123 549 115 574 q 108 599 95 610 l 81 619 q 55 635 55 641 q 55 660 86 663 q 118 667 228 667 q 285 667 285 647 q 285 646 266 633 q 248 619 242 606 q 226 572 226 452 q 226 391 248 381 q 271 372 391 372 q 512 372 527 393 q 536 405 536 494 q 536 583 524 608 q 520 618 501 633 q 483 648 483 651 q 483 672 627 672 q 705 672 705 661 l 705 648 q 705 643 679 627 q 653 611 643 582 q 633 552 633 376 l 633 329 l 634 304 l 634 232 q 634 113 640 92 q 646 70 661 60 q 701 31 701 30 q 701 16 684 11 q 675 9 574 9 q 472 9 472 31 z"},"4":{"x_min":0,"x_max":547,"ha":547,"o":"m 315 519 q 315 537 313 537 l 312 537 q 311 537 205 384 q 100 230 100 229 q 100 224 125 224 l 201 224 l 205 225 l 272 228 q 277 228 281 228 q 303 228 306 245 q 312 276 312 396 l 313 434 q 313 440 313 447 l 314 452 l 314 461 l 315 506 z m 410 -9 q 391 -19 355 -19 l 334 -19 q 306 -19 289 -5 q 271 8 271 20 q 271 33 285 52 q 298 72 298 84 q 298 138 261 157 q 239 167 169 167 q 98 167 73 181 q 48 194 48 211 l 48 220 q 48 261 305 609 q 334 650 368 650 q 387 650 395 631 q 403 613 403 551 l 402 528 q 401 504 401 492 l 400 423 q 400 302 410 276 q 419 250 450 235 q 481 221 481 207 q 481 199 466 186 q 451 173 446 161 q 421 101 421 92 q 421 83 432 64 q 443 44 443 26 q 443 7 410 -9 z"},"~":{"x_min":0,"x_max":579,"ha":579,"o":"m 176 396 l 187 396 l 192 396 q 221 396 299 359 q 376 322 404 322 q 431 322 458 349 q 500 391 502 391 q 520 391 520 372 q 520 336 482 299 q 445 261 402 261 l 391 261 q 360 261 285 299 q 210 336 180 336 q 150 336 122 309 q 117 304 102 285 q 87 266 77 266 q 60 266 60 286 l 60 291 q 60 326 99 361 q 139 396 176 396 z"},"D":{"x_min":0,"x_max":722,"ha":722,"o":"m 312 50 l 337 50 q 436 50 497 128 q 559 206 559 333 l 559 342 l 558 352 q 558 472 493 553 q 463 591 420 610 q 376 629 330 629 l 313 629 q 263 629 241 618 q 226 610 226 578 l 226 497 l 226 489 l 227 464 l 227 448 l 227 440 l 227 340 q 227 98 233 81 q 244 50 312 50 z m 61 653 l 61 659 q 61 677 229 677 l 279 678 l 329 678 q 558 678 640 490 q 667 428 667 346 l 667 333 q 667 260 641 195 q 560 1 327 1 q 327 1 326 1 l 265 1 l 252 1 l 229 1 q 114 1 81 7 q 62 11 62 28 q 62 33 100 52 q 121 62 127 88 q 134 115 134 247 l 134 447 l 134 472 l 132 522 q 132 585 117 612 q 109 626 85 635 q 61 645 61 653 z"},"^":{"x_min":0,"x_max":517,"ha":517,"o":"m 462 362 q 462 351 438 351 q 413 351 385 390 q 354 434 308 517 q 262 601 260 601 q 254 601 204 510 q 153 419 135 394 q 105 352 80 352 q 56 352 56 358 l 56 364 q 56 365 126 492 q 197 620 217 651 q 237 682 260 682 q 282 682 300 652 q 462 381 462 362 z"},"0":{"x_min":0,"x_max":550,"ha":550,"o":"m 400 299 l 400 342 q 400 542 325 598 q 302 615 274 615 l 268 615 q 212 615 178 541 q 145 468 145 344 l 145 310 q 145 182 182 104 q 197 72 221 55 q 246 38 272 38 l 279 38 q 302 38 325 55 q 349 71 364 102 q 400 178 400 299 z m 271 663 l 290 663 q 327 663 367 642 q 407 622 438 576 q 470 531 485 469 q 500 407 500 354 l 500 312 q 500 240 482 181 q 445 57 371 15 q 326 -10 281 -10 l 263 -10 q 222 -10 182 13 q 98 60 67 191 q 54 245 54 310 l 54 331 q 54 478 116 572 q 145 617 186 640 q 227 663 271 663 z"},"F":{"x_min":0,"x_max":570,"ha":570,"o":"m 524 533 q 518 533 496 562 q 473 592 434 607 q 395 622 312 622 q 261 622 240 585 q 218 548 218 455 q 218 414 237 399 q 255 384 297 384 q 339 384 355 394 q 371 403 387 422 q 403 440 408 440 q 424 440 430 418 q 437 396 437 341 q 437 253 411 253 q 404 253 396 261 l 388 269 q 375 281 370 286 q 342 305 296 305 q 249 305 233 280 q 223 264 223 184 q 223 104 237 66 q 243 52 262 38 q 282 23 282 18 q 282 5 240 5 q 147 5 103 11 q 58 17 58 33 q 58 42 86 57 q 114 73 120 93 q 127 114 127 323 q 127 532 120 566 q 112 601 95 617 q 62 647 62 651 l 69 657 q 95 675 355 675 q 497 675 517 656 q 537 637 537 570 l 537 555 q 537 533 524 533 z"},"`":{"x_min":0,"x_max":375,"ha":375,"o":"m 127 710 q 152 710 180 679 q 263 584 263 564 l 263 562 q 263 555 249 555 l 242 555 q 217 555 148 615 q 79 675 79 688 l 79 692 q 79 711 112 711 l 120 711 q 125 710 127 710 z"},"k":{"x_min":0,"x_max":540,"ha":540,"o":"m 134 688 q 171 688 176 667 q 179 658 179 524 q 179 390 186 342 q 194 295 214 295 q 245 295 290 350 q 316 382 319 407 q 322 433 334 443 q 346 453 406 453 q 467 453 467 435 q 467 434 389 369 q 311 305 311 274 q 311 229 434 90 q 453 69 484 48 q 515 27 515 27 l 515 19 q 515 5 472 5 q 378 5 359 18 q 351 23 340 62 q 330 101 305 137 q 251 214 222 214 q 216 214 204 193 q 191 171 191 135 q 191 98 206 68 q 221 37 221 34 q 221 28 201 19 q 182 10 105 10 q 57 10 57 30 q 57 34 63 44 l 74 61 q 89 89 93 115 q 97 142 97 349 q 97 556 89 590 q 82 624 68 636 l 45 656 q 45 688 134 688 z"},"u":{"x_min":0,"x_max":563,"ha":563,"o":"m 422 3 q 399 3 390 23 q 375 54 371 54 q 368 54 345 39 q 284 -3 241 -3 l 228 -3 q 144 -3 106 71 q 90 105 90 232 q 90 358 83 383 q 77 408 55 419 q 34 431 34 442 q 34 460 125 460 q 161 460 166 438 q 171 417 171 277 q 171 137 182 107 q 220 58 263 48 q 298 48 326 65 q 354 82 367 101 q 389 133 389 236 q 389 339 382 366 q 375 393 357 410 q 339 427 339 434 q 339 441 348 447 q 373 463 444 463 q 467 463 470 451 q 474 440 474 402 l 474 389 l 473 375 q 472 357 472 334 l 470 278 q 469 250 469 189 q 469 88 493 69 l 501 63 l 511 59 q 524 50 524 45 q 524 28 492 16 q 460 3 422 3 z"},"]":{"x_min":0,"x_max":340,"ha":340,"o":"m 240 81 q 240 -96 234 -113 q 228 -129 212 -134 q 197 -139 144 -139 l 78 -141 q 47 -141 47 -123 q 47 -112 92 -102 q 137 -92 142 -89 q 155 -81 163 -57 q 170 -33 170 282 q 170 597 163 621 q 155 645 146 652 q 137 659 93 669 q 48 679 48 694 q 48 709 83 709 l 94 708 l 116 707 l 161 707 q 223 707 233 684 q 240 669 240 561 l 240 364 l 241 316 l 242 293 l 242 269 l 241 246 l 240 199 z"},"U":{"x_min":0,"x_max":711,"ha":711,"o":"m 569 89 q 507 -11 355 -11 q 203 -11 144 91 q 120 132 115 184 q 109 236 109 407 q 109 578 103 594 q 96 610 68 624 q 41 638 41 649 q 41 674 156 674 l 193 675 l 211 675 q 264 675 264 663 q 264 658 241 635 q 218 612 214 577 q 205 504 205 364 q 205 356 205 348 q 205 222 212 179 q 227 90 298 58 q 331 43 374 43 q 417 43 456 62 q 495 80 517 120 q 547 172 547 343 q 547 584 521 617 q 512 628 498 641 q 483 654 483 657 q 483 675 543 675 l 562 675 q 643 675 663 666 q 673 661 673 646 q 673 640 643 621 q 613 602 607 571 q 605 557 605 384 q 605 212 598 169 q 592 125 569 89 z"},"o":{"x_min":0,"x_max":535,"ha":535,"o":"m 400 212 l 400 244 q 400 324 361 379 q 323 433 271 433 l 261 433 q 208 433 174 381 q 140 329 140 256 l 140 231 q 140 150 169 105 q 214 36 265 36 q 265 36 265 36 l 281 36 q 331 36 365 86 q 400 136 400 212 z m 53 222 l 53 239 q 53 338 116 408 q 179 478 271 478 l 279 478 q 374 478 434 408 q 494 339 494 237 l 494 229 q 494 182 477 136 q 459 91 428 58 q 364 -9 271 -9 q 178 -9 115 56 q 53 122 53 222 z"},"N":{"x_min":0,"x_max":742,"ha":742,"o":"m 239 23 q 239 3 108 3 q 45 3 45 21 q 45 22 85 51 q 106 65 114 97 q 122 128 122 335 q 122 542 115 571 q 109 601 80 621 q 50 640 50 652 q 50 669 112 669 l 135 669 q 196 669 242 616 q 267 587 412 383 q 557 178 565 178 q 574 178 574 370 q 574 562 563 600 q 558 618 546 628 l 533 637 q 513 650 513 652 q 513 668 567 668 q 658 668 683 655 l 691 646 q 691 631 667 607 q 643 584 636 550 q 630 517 630 380 l 629 285 l 628 238 q 627 214 627 167 l 628 74 q 628 8 607 8 q 574 8 513 86 q 488 118 343 326 q 199 533 188 533 q 178 533 178 351 l 180 162 q 180 110 194 82 q 200 70 219 51 q 239 31 239 23 z"},"+":{"x_min":0,"x_max":572,"ha":572,"o":"m 52 284 l 52 293 q 52 313 67 317 q 69 317 158 317 q 247 317 251 320 q 255 323 255 411 q 255 499 256 503 q 261 517 281 517 l 291 517 q 312 517 314 503 q 315 500 315 412 q 315 323 320 320 q 324 317 412 317 q 500 317 504 316 q 518 313 518 292 l 518 283 q 518 264 502 261 q 497 260 410 260 q 324 260 319 257 q 315 253 315 165 q 315 77 313 72 q 310 59 289 59 l 280 59 q 259 59 256 73 q 255 77 255 165 q 255 253 250 257 q 245 260 159 260 l 112 260 l 94 259 q 52 259 52 284 z"},"G":{"x_min":0,"x_max":715,"ha":715,"o":"m 660 284 q 660 282 643 258 q 626 235 621 216 q 616 196 614 128 q 612 59 597 46 q 582 32 548 26 q 514 21 467 6 q 420 -8 374 -8 l 354 -8 q 295 -8 238 18 q 116 73 69 198 q 46 258 46 321 l 46 343 q 46 485 140 584 q 234 683 372 683 q 411 683 462 671 q 513 659 524 659 l 540 660 l 556 661 q 582 661 592 645 q 611 613 611 547 q 611 505 591 505 q 587 505 555 543 q 484 629 379 629 q 274 629 213 551 q 152 473 152 343 q 152 213 219 132 q 285 50 381 50 q 442 50 480 77 q 518 104 518 154 q 518 205 506 229 q 494 253 474 272 q 455 291 455 295 q 455 305 557 305 q 660 305 660 284 z"},"q":{"x_min":0,"x_max":548,"ha":548,"o":"m 384 236 l 384 275 q 384 349 363 381 q 332 429 280 429 l 265 429 q 213 429 178 376 q 144 323 144 256 l 144 224 q 144 151 180 99 q 215 47 261 47 l 270 47 q 322 47 358 101 q 382 135 382 208 l 383 219 q 384 230 384 236 z m 437 461 q 468 461 468 393 l 465 328 q 464 317 464 245 l 465 221 l 465 197 l 466 173 l 467 125 l 467 101 l 468 41 q 468 -99 473 -116 q 478 -133 496 -143 q 527 -160 527 -169 q 527 -178 522 -181 q 497 -197 374 -197 l 363 -197 q 330 -197 330 -181 q 330 -175 348 -163 q 366 -150 372 -138 q 378 -125 378 -75 q 378 -26 368 12 q 363 30 345 30 q 340 30 320 22 q 300 14 286 9 q 271 4 237 4 q 203 4 167 21 q 90 56 63 149 q 52 188 52 236 q 52 329 102 393 q 133 432 171 451 q 210 471 246 471 l 269 471 q 288 471 336 456 q 385 440 390 440 q 395 440 412 451 q 429 461 437 461 z"},"d":{"x_min":0,"x_max":558,"ha":558,"o":"m 379 251 q 379 344 357 378 q 344 398 318 413 q 293 428 267 428 l 257 428 q 207 428 175 381 q 142 333 142 253 l 142 223 q 142 148 173 95 q 187 72 210 59 q 233 46 255 46 l 270 46 q 322 46 355 95 q 377 127 377 194 l 378 205 l 379 228 z m 328 455 q 328 455 329 455 q 357 455 357 556 q 357 609 352 622 q 346 635 332 644 q 317 652 317 660 q 317 667 330 673 q 366 689 422 689 q 447 689 456 670 q 465 650 465 569 l 466 546 l 467 486 l 467 328 l 465 216 q 465 115 468 93 q 471 71 489 56 q 508 42 508 36 l 508 30 q 508 26 498 21 q 467 3 431 3 q 395 3 385 14 q 383 16 375 31 q 368 45 363 45 q 358 45 338 32 q 317 19 292 7 q 267 -5 224 -5 l 212 -5 q 188 -5 157 8 q 125 21 106 47 q 57 114 57 204 l 57 217 q 57 269 74 314 q 108 411 183 446 q 223 464 253 464 q 282 464 303 459 q 324 455 328 455 z"},"1":{"x_min":0,"x_max":506,"ha":506,"o":"m 397 14 q 397 0 244 0 l 204 0 l 184 0 q 125 0 125 16 q 125 29 158 46 q 190 63 204 94 q 217 124 217 197 l 217 208 q 218 219 218 232 l 218 335 q 218 492 206 530 q 195 567 138 567 q 112 567 112 578 q 112 589 130 598 q 228 648 275 648 l 283 648 q 299 648 305 630 q 312 611 312 560 l 311 539 q 308 478 308 461 l 308 435 l 307 402 l 307 338 q 307 148 314 115 q 322 81 348 60 q 397 21 397 19 z"},"5":{"x_min":0,"x_max":530,"ha":530,"o":"m 140 343 q 92 344 92 388 q 92 409 111 542 q 118 589 131 611 q 144 632 167 638 q 191 644 257 644 q 323 644 344 645 l 404 649 l 417 649 q 446 649 446 625 q 446 591 414 575 q 395 565 331 565 l 284 566 q 269 567 233 567 q 198 567 181 542 q 154 503 154 449 q 154 423 162 415 q 169 406 192 406 l 250 409 q 300 409 341 392 q 422 359 452 286 q 467 248 467 201 q 467 154 448 110 q 413 28 329 -4 q 283 -22 224 -22 q 165 -22 113 7 q 62 37 62 71 q 62 105 83 105 q 104 105 119 88 q 147 55 160 47 q 192 28 230 28 q 297 28 336 72 q 376 115 376 188 q 376 260 331 304 q 287 348 208 348 q 194 348 180 347 l 166 345 q 145 343 140 343 z"}}}
